<svg width="30" height="25" viewBox="0 0 30 25" fill="none" xmlns="http://www.w3.org/2000/svg">
<path d="M9.56958 19.1455C7.83981 19.1455 6.43762 20.3162 6.43762 21.7602C6.43762 23.2043 7.83988 24.3749 9.56958 24.3749C11.2994 24.3749 12.7015 23.2042 12.7015 21.7602C12.7016 20.3162 11.2994 19.1455 9.56958 19.1455ZM9.56958 23.2128C8.60861 23.2128 7.82962 22.5625 7.82962 21.7603C7.82962 20.958 8.60861 20.3077 9.56958 20.3077C10.5305 20.3077 11.3095 20.958 11.3095 21.7603C11.3096 22.5625 10.5305 23.2128 9.56958 23.2128Z" fill="#F8F9FA"/>
<path d="M22.7936 19.1455C21.0638 19.1455 19.6616 20.3162 19.6616 21.7602C19.6616 23.2043 21.0639 24.3749 22.7936 24.3749C24.5233 24.3749 25.9255 23.2042 25.9255 21.7602C25.9255 20.3162 24.5234 19.1455 22.7936 19.1455ZM22.7936 23.2128C21.8326 23.2128 21.0536 22.5625 21.0536 21.7603C21.0536 20.958 21.8326 20.3077 22.7936 20.3077C23.7545 20.3077 24.5335 20.958 24.5335 21.7603C24.5336 22.5625 23.7545 23.2128 22.7936 23.2128Z" fill="#F8F9FA"/>
<path d="M29.8581 3.89306C29.7131 3.76088 29.5148 3.67814 29.3013 3.66062L6.64675 3.39915L6.02036 1.80126C5.57907 0.733081 4.38092 0.0119557 3.02756 0H0.695994C0.311595 0 0 0.260134 0 0.581048C0 0.901962 0.311595 1.1621 0.695994 1.1621H3.02756C3.7843 1.17605 4.45066 1.58172 4.69798 2.17895L9.11753 13.306L8.76956 13.9742C8.38143 14.8098 8.498 15.7502 9.08276 16.5017C9.66192 17.2399 10.6363 17.6954 11.6928 17.7219H25.2298C25.6142 17.7219 25.9258 17.4618 25.9258 17.1409C25.9258 16.82 25.6142 16.5599 25.2298 16.5599H11.6927C11.0961 16.5474 10.5469 16.2854 10.2311 15.8626C9.91883 15.445 9.85468 14.9305 10.0571 14.468L10.3355 13.9451L24.9862 12.6668C26.5954 12.5188 27.9192 11.5417 28.2922 10.2264L29.9626 4.38686C30.0378 4.2187 29.9979 4.02958 29.8581 3.89306ZM26.9349 9.96496C26.709 10.8116 25.848 11.4362 24.8122 11.5047L10.3355 12.754L7.09915 4.56125L28.4313 4.82272L26.9349 9.96496Z" fill="#F8F9FA"/>
</svg>
