<svg width="40" height="36" viewBox="0 0 40 36" fill="none" xmlns="http://www.w3.org/2000/svg">
<path d="M34.731 13.3052H16.1371C15.8136 13.3052 15.5512 13.5653 15.5512 13.8862C15.5512 14.2071 15.8136 14.4672 16.1371 14.4672H34.731C35.0546 14.4672 35.3169 14.2071 35.3169 13.8862C35.3169 13.5653 35.0546 13.3052 34.731 13.3052Z" fill="#798A9B"/>
<path d="M34.731 17.7471H16.1371C15.8136 17.7471 15.5512 18.0072 15.5512 18.3281C15.5512 18.649 15.8136 18.9091 16.1371 18.9091H34.731C35.0546 18.9091 35.3169 18.649 35.3169 18.3281C35.3169 18.0072 35.0546 17.7471 34.731 17.7471Z" fill="#798A9B"/>
<path d="M34.731 22.1885H16.1371C15.8136 22.1885 15.5512 22.4486 15.5512 22.7695C15.5512 23.0904 15.8136 23.3505 16.1371 23.3505H34.731C35.0546 23.3505 35.3169 23.0904 35.3169 22.7695C35.3169 22.4486 35.0546 22.1885 34.731 22.1885Z" fill="#798A9B"/>
<path d="M36.592 8.22363H14.2758C12.3967 8.22363 10.8679 9.73959 10.8679 11.6031V25.5182C10.8679 27.3816 12.3966 28.8977 14.2758 28.8977H29.9174C30.0847 28.8977 30.24 28.9723 30.3438 29.1025L35.395 35.4438C35.5941 35.6937 35.8845 35.8299 36.1887 35.8299C36.3017 35.8299 36.4167 35.811 36.5295 35.7721C36.9457 35.6288 37.2146 35.2539 37.2146 34.8171V28.84C38.7947 28.5473 40 27.162 40 25.5182V11.603C40 9.73959 38.4713 8.22363 36.592 8.22363ZM38.8281 25.5182C38.8281 26.725 37.8381 27.7193 36.6211 27.7347C36.3005 27.7388 36.0427 27.9977 36.0427 28.3157V34.3821L31.2634 28.3822C30.9361 27.9712 30.4455 27.7355 29.9174 27.7355H14.2758C13.0429 27.7355 12.0397 26.7408 12.0397 25.5181V11.603C12.0397 10.3804 13.0428 9.38562 14.2758 9.38562H36.592C37.825 9.38562 38.8281 10.3804 38.8281 11.603V25.5182Z" fill="#798A9B"/>
<path d="M8.63235 17.8312C8.23157 17.8876 7.87266 18.0922 7.62173 18.4072L3.59664 23.4603V18.396C3.59664 18.0779 3.33883 17.819 3.01821 17.8149C2.00016 17.8021 1.17188 16.9703 1.17188 15.9607V3.84719C1.17188 2.82434 2.0111 1.99215 3.04258 1.99215H22.4694C23.5009 1.99215 24.3401 2.82434 24.3401 3.84719V6.08859C24.3401 6.40947 24.6024 6.66962 24.926 6.66962C25.2496 6.66962 25.512 6.40947 25.512 6.08859V3.84719C25.512 2.18358 24.1471 0.830078 22.4694 0.830078H3.04258C1.36492 0.830078 0 2.18358 0 3.84719V15.9607C0 17.4068 1.04461 18.6286 2.42485 18.9142V24.0556C2.42485 24.4684 2.67891 24.8227 3.07219 24.9581C3.17883 24.9948 3.28742 25.0126 3.3943 25.0126C3.68157 25.0126 3.95618 24.8839 4.14422 24.6478L8.54141 19.1275C8.60485 19.0478 8.69571 18.9961 8.79712 18.9817C9.11751 18.9366 9.3404 18.6425 9.29485 18.3248C9.24938 18.0071 8.95321 17.7859 8.63235 17.8312Z" fill="#798A9B"/>
</svg>
