<svg width="30" height="30" viewBox="0 0 30 30" fill="none" xmlns="http://www.w3.org/2000/svg">
<g clip-path="url(#clip0)">
<path d="M15 -0.000488281C6.71575 -0.000488281 0 6.71526 0 14.9995C0 23.2838 6.71575 29.9995 15 29.9995C23.2843 29.9995 30 23.2838 30 14.9995C29.9906 6.71914 23.2804 0.00888672 15 -0.000488281ZM15 28.9995C7.268 28.9995 1 22.7315 1 14.9995C1 7.26751 7.268 0.999512 15 0.999512C22.732 0.999512 29 7.26751 29 14.9995C28.9912 22.7278 22.7283 28.9907 15 28.9995Z" fill="#798A9B"/>
<path d="M15 2.49951C8.09645 2.49951 2.50001 8.09595 2.50001 14.9995C2.50001 21.9031 8.09645 27.4995 15 27.4995C21.9036 27.4995 27.5 21.9031 27.5 14.9995C27.4923 8.09914 21.9004 2.5072 15 2.49951ZM15 26.4995C8.64876 26.4995 3.50001 21.3508 3.50001 14.9995C3.50001 8.64826 8.64876 3.49951 15 3.49951C21.3513 3.49951 26.5 8.64826 26.5 14.9995C26.4928 21.3478 21.3483 26.4923 15 26.4995Z" fill="#798A9B"/>
<path d="M15.5 4.99951H14.5V5.99951H15.5V4.99951Z" fill="#798A9B"/>
<path d="M15.5 23.9995H14.5V24.9995H15.5V23.9995Z" fill="#798A9B"/>
<path d="M10.4317 6.09L9.56625 6.58984L10.0661 7.45531L10.9316 6.95546L10.4317 6.09Z" fill="#798A9B"/>
<path d="M19.9295 22.5412L19.0641 23.041L19.5639 23.9065L20.4294 23.4066L19.9295 22.5412Z" fill="#798A9B"/>
<path d="M6.58923 9.56662L6.08923 10.4326L6.95523 10.9326L7.45523 10.0666L6.58923 9.56662Z" fill="#798A9B"/>
<path d="M23.042 19.0686L22.542 19.9346L23.408 20.4346L23.908 19.5686L23.042 19.0686Z" fill="#798A9B"/>
<path d="M5.99999 14.4995H4.99999V15.4995H5.99999V14.4995Z" fill="#798A9B"/>
<path d="M25 14.4995H24V15.4995H25V14.4995Z" fill="#798A9B"/>
<path d="M6.95574 19.0675L6.08965 19.5674L6.58954 20.4335L7.45564 19.9336L6.95574 19.0675Z" fill="#798A9B"/>
<path d="M23.408 9.56641L22.542 10.0664L23.042 10.9324L23.908 10.4324L23.408 9.56641Z" fill="#798A9B"/>
<path d="M10.0636 22.5427L9.56372 23.4082L10.4292 23.9081L10.929 23.0426L10.0636 22.5427Z" fill="#798A9B"/>
<path d="M19.5662 6.09058L19.0664 6.95605L19.9318 7.45591L20.4317 6.59044L19.5662 6.09058Z" fill="#798A9B"/>
<path d="M14.5001 6.99951V14.7165L9.7426 17.571L10.2576 18.428L15.2576 15.428C15.408 15.3376 15.5001 15.175 15.5001 14.9995V6.99951H14.5001Z" fill="#798A9B"/>
</g>
<defs>
<clipPath id="clip0">
<rect width="30" height="30" fill="white" transform="translate(0 -0.000488281)"/>
</clipPath>
</defs>
</svg>
