<svg width="30" height="30" viewBox="0 0 30 30" fill="none" xmlns="http://www.w3.org/2000/svg">
<g clip-path="url(#clip0)">
<path d="M15 -2C6.729 -2 0 4.729 0 13C0 16.6225 1.291 19.949 3.437 22.544C3.4425 22.5515 3.443 22.561 3.449 22.568C4.9985 24.4365 6.9445 25.869 9.113 26.7945C9.138 26.805 9.1625 26.8165 9.1875 26.827C9.363 26.901 9.5405 26.9695 9.7185 27.0365C9.7885 27.063 9.8585 27.09 9.9295 27.1155C10.083 27.1705 10.2375 27.2225 10.393 27.2725C10.4925 27.3045 10.592 27.336 10.6925 27.366C10.83 27.407 10.968 27.4465 11.107 27.484C11.229 27.517 11.352 27.5475 11.475 27.577C11.5995 27.607 11.7245 27.637 11.85 27.6635C11.99 27.6935 12.1315 27.72 12.2735 27.746C12.3875 27.767 12.501 27.789 12.616 27.8075C12.7735 27.833 12.932 27.853 13.091 27.8735C13.1935 27.8865 13.2955 27.9015 13.3985 27.9125C13.5785 27.9315 13.76 27.945 13.942 27.9575C14.0265 27.9635 14.1105 27.9725 14.1955 27.977C14.461 27.992 14.7295 28 15 28C15.2705 28 15.539 27.992 15.8055 27.978C15.8905 27.9735 15.9745 27.9645 16.059 27.9585C16.241 27.9455 16.4225 27.9325 16.6025 27.9135C16.7055 27.9025 16.8075 27.8875 16.91 27.8745C17.069 27.854 17.2275 27.834 17.385 27.8085C17.4995 27.79 17.6135 27.768 17.7275 27.747C17.869 27.721 18.0105 27.6945 18.151 27.6645C18.2765 27.6375 18.401 27.608 18.526 27.578C18.649 27.548 18.772 27.5175 18.894 27.485C19.033 27.448 19.171 27.408 19.3085 27.367C19.409 27.337 19.5085 27.3055 19.608 27.2735C19.7635 27.2235 19.918 27.1715 20.0715 27.1165C20.142 27.091 20.212 27.064 20.2825 27.0375C20.461 26.9705 20.638 26.9015 20.8135 26.828C20.8385 26.8175 20.863 26.806 20.888 26.7955C23.056 25.87 25.0025 24.4375 26.552 22.569C26.558 22.562 26.5585 22.552 26.564 22.545C28.709 19.949 30 16.6225 30 13C30 4.729 23.271 -2 15 -2ZM21.0785 25.61C21.071 25.6135 21.064 25.6175 21.0565 25.621C20.878 25.707 20.6965 25.788 20.5135 25.867C20.472 25.8845 20.431 25.9025 20.3895 25.92C20.2295 25.987 20.0675 26.0505 19.9045 26.1115C19.8365 26.137 19.7685 26.162 19.7 26.186C19.5555 26.2375 19.4105 26.287 19.264 26.334C19.173 26.363 19.0815 26.3905 18.99 26.4175C18.86 26.4565 18.7295 26.494 18.5975 26.529C18.4865 26.5585 18.3745 26.5855 18.2625 26.612C18.145 26.64 18.028 26.6685 17.9095 26.6935C17.78 26.721 17.6495 26.7445 17.5195 26.768C17.414 26.7875 17.309 26.808 17.2025 26.825C17.056 26.848 16.908 26.8665 16.7605 26.885C16.667 26.897 16.574 26.911 16.4795 26.921C16.311 26.939 16.141 26.9505 15.9715 26.9625C15.896 26.9675 15.821 26.976 15.7445 26.98C15.497 26.993 15.249 27 15 27C14.751 27 14.503 26.993 14.256 26.98C14.18 26.976 14.105 26.968 14.029 26.9625C13.859 26.951 13.6895 26.939 13.521 26.921C13.4265 26.911 13.3335 26.897 13.24 26.885C13.0925 26.8665 12.9445 26.848 12.798 26.825C12.6915 26.808 12.5865 26.7875 12.481 26.768C12.3505 26.7445 12.22 26.7205 12.091 26.6935C11.9725 26.6685 11.855 26.64 11.738 26.612C11.626 26.585 11.514 26.5585 11.403 26.529C11.2715 26.494 11.1405 26.456 11.0105 26.4175C10.919 26.3905 10.8275 26.363 10.7365 26.334C10.59 26.287 10.4445 26.2375 10.3005 26.186C10.232 26.1615 10.164 26.1365 10.096 26.1115C9.933 26.0505 9.771 25.987 9.611 25.92C9.5695 25.903 9.529 25.885 9.4875 25.8675C9.3045 25.789 9.123 25.7075 8.944 25.6215C8.9365 25.618 8.9295 25.6145 8.922 25.6105C7.1775 24.7665 5.6365 23.5685 4.386 22.1135C5.3525 18.5545 8.0885 15.6855 11.6085 14.544C11.678 14.5865 11.7505 14.6245 11.822 14.6645C11.864 14.688 11.9055 14.713 11.948 14.7355C12.097 14.8145 12.248 14.8885 12.4025 14.955C12.521 15.007 12.6435 15.051 12.7655 15.096C12.7895 15.1045 12.8135 15.114 12.8375 15.1225C13.5155 15.3625 14.241 15.5 15 15.5C15.759 15.5 16.4845 15.3625 17.162 15.1225C17.186 15.114 17.21 15.1045 17.234 15.096C17.356 15.051 17.4785 15.007 17.597 14.955C17.7515 14.8885 17.9025 14.8145 18.0515 14.7355C18.094 14.7125 18.1355 14.688 18.1775 14.6645C18.249 14.6245 18.322 14.5865 18.392 14.5435C21.912 15.6855 24.6475 18.5545 25.6145 22.113C24.364 23.5675 22.823 24.7655 21.0785 25.61ZM9.5 9C9.5 5.9675 11.9675 3.5 15 3.5C18.0325 3.5 20.5 5.9675 20.5 9C20.5 10.929 19.4995 12.6265 17.992 13.6085C17.795 13.7365 17.59 13.851 17.3795 13.951C17.3545 13.963 17.33 13.9755 17.305 13.987C15.857 14.6455 14.143 14.6455 12.695 13.987C12.67 13.9755 12.645 13.963 12.6205 13.951C12.4095 13.851 12.205 13.7365 12.008 13.6085C10.5005 12.6265 9.5 10.929 9.5 9ZM26.3645 21.1615C25.231 17.8145 22.645 15.1095 19.341 13.8245C20.6625 12.634 21.5 10.915 21.5 9C21.5 5.416 18.584 2.5 15 2.5C11.416 2.5 8.5 5.416 8.5 9C8.5 10.915 9.3375 12.634 10.6595 13.8245C7.3555 15.11 4.7695 17.8145 3.636 21.1615C1.9795 18.862 1 16.044 1 13C1 5.2805 7.2805 -1 15 -1C22.7195 -1 29 5.2805 29 13C29 16.044 28.0205 18.862 26.3645 21.1615Z" fill="#F8F9FA"/>
</g>
<defs>
<clipPath id="clip0">
<rect width="30" height="30" fill="white"/>
</clipPath>
</defs>
</svg>
