<svg width="30" height="30" viewBox="0 0 30 30" fill="none" xmlns="http://www.w3.org/2000/svg">
<path d="M15 -0.000488281C6.729 -0.000488281 0 6.72851 0 14.9995C0 18.622 1.291 21.9485 3.437 24.5435C3.4425 24.551 3.443 24.5605 3.449 24.5675C4.9985 26.436 6.9445 27.8685 9.113 28.794C9.138 28.8045 9.1625 28.816 9.1875 28.8265C9.363 28.9005 9.5405 28.969 9.7185 29.036C9.7885 29.0625 9.8585 29.0895 9.9295 29.115C10.083 29.17 10.2375 29.222 10.393 29.272C10.4925 29.304 10.592 29.3355 10.6925 29.3655C10.83 29.4065 10.968 29.446 11.107 29.4835C11.229 29.5165 11.352 29.547 11.475 29.5765C11.5995 29.6065 11.7245 29.6365 11.85 29.663C11.99 29.693 12.1315 29.7195 12.2735 29.7455C12.3875 29.7665 12.501 29.7885 12.616 29.807C12.7735 29.8325 12.932 29.8525 13.091 29.873C13.1935 29.886 13.2955 29.901 13.3985 29.912C13.5785 29.931 13.76 29.9445 13.942 29.957C14.0265 29.963 14.1105 29.972 14.1955 29.9765C14.461 29.9915 14.7295 29.9995 15 29.9995C15.2705 29.9995 15.539 29.9915 15.8055 29.9775C15.8905 29.973 15.9745 29.964 16.059 29.958C16.241 29.945 16.4225 29.932 16.6025 29.913C16.7055 29.902 16.8075 29.887 16.91 29.874C17.069 29.8535 17.2275 29.8335 17.385 29.808C17.4995 29.7895 17.6135 29.7675 17.7275 29.7465C17.869 29.7205 18.0105 29.694 18.151 29.664C18.2765 29.637 18.401 29.6075 18.526 29.5775C18.649 29.5475 18.772 29.517 18.894 29.4845C19.033 29.4475 19.171 29.4075 19.3085 29.3665C19.409 29.3365 19.5085 29.305 19.608 29.273C19.7635 29.223 19.918 29.171 20.0715 29.116C20.142 29.0905 20.212 29.0635 20.2825 29.037C20.461 28.97 20.638 28.901 20.8135 28.8275C20.8385 28.817 20.863 28.8055 20.888 28.795C23.056 27.8695 25.0025 26.437 26.552 24.5685C26.558 24.5615 26.5585 24.5515 26.564 24.5445C28.709 21.9485 30 18.622 30 14.9995C30 6.72851 23.271 -0.000488281 15 -0.000488281ZM21.0785 27.6095C21.071 27.613 21.064 27.617 21.0565 27.6205C20.878 27.7065 20.6965 27.7875 20.5135 27.8665C20.472 27.884 20.431 27.902 20.3895 27.9195C20.2295 27.9865 20.0675 28.05 19.9045 28.111C19.8365 28.1365 19.7685 28.1615 19.7 28.1855C19.5555 28.237 19.4105 28.2865 19.264 28.3335C19.173 28.3625 19.0815 28.39 18.99 28.417C18.86 28.456 18.7295 28.4935 18.5975 28.5285C18.4865 28.558 18.3745 28.585 18.2625 28.6115C18.145 28.6395 18.028 28.668 17.9095 28.693C17.78 28.7205 17.6495 28.744 17.5195 28.7675C17.414 28.787 17.309 28.8075 17.2025 28.8245C17.056 28.8475 16.908 28.866 16.7605 28.8845C16.667 28.8965 16.574 28.9105 16.4795 28.9205C16.311 28.9385 16.141 28.95 15.9715 28.962C15.896 28.967 15.821 28.9755 15.7445 28.9795C15.497 28.9925 15.249 28.9995 15 28.9995C14.751 28.9995 14.503 28.9925 14.256 28.9795C14.18 28.9755 14.105 28.9675 14.029 28.962C13.859 28.9505 13.6895 28.9385 13.521 28.9205C13.4265 28.9105 13.3335 28.8965 13.24 28.8845C13.0925 28.866 12.9445 28.8475 12.798 28.8245C12.6915 28.8075 12.5865 28.787 12.481 28.7675C12.3505 28.744 12.22 28.72 12.091 28.693C11.9725 28.668 11.855 28.6395 11.738 28.6115C11.626 28.5845 11.514 28.558 11.403 28.5285C11.2715 28.4935 11.1405 28.4555 11.0105 28.417C10.919 28.39 10.8275 28.3625 10.7365 28.3335C10.59 28.2865 10.4445 28.237 10.3005 28.1855C10.232 28.161 10.164 28.136 10.096 28.111C9.933 28.05 9.771 27.9865 9.611 27.9195C9.5695 27.9025 9.529 27.8845 9.4875 27.867C9.3045 27.7885 9.123 27.707 8.944 27.621C8.9365 27.6175 8.9295 27.614 8.922 27.61C7.1775 26.766 5.6365 25.568 4.386 24.113C5.3525 20.554 8.0885 17.685 11.6085 16.5435C11.678 16.586 11.7505 16.624 11.822 16.664C11.864 16.6875 11.9055 16.7125 11.948 16.735C12.097 16.814 12.248 16.888 12.4025 16.9545C12.521 17.0065 12.6435 17.0505 12.7655 17.0955C12.7895 17.104 12.8135 17.1135 12.8375 17.122C13.5155 17.362 14.241 17.4995 15 17.4995C15.759 17.4995 16.4845 17.362 17.162 17.122C17.186 17.1135 17.21 17.104 17.234 17.0955C17.356 17.0505 17.4785 17.0065 17.597 16.9545C17.7515 16.888 17.9025 16.814 18.0515 16.735C18.094 16.712 18.1355 16.6875 18.1775 16.664C18.249 16.624 18.322 16.586 18.392 16.543C21.912 17.685 24.6475 20.554 25.6145 24.1125C24.364 25.567 22.823 26.765 21.0785 27.6095ZM9.5 10.9995C9.5 7.96701 11.9675 5.49951 15 5.49951C18.0325 5.49951 20.5 7.96701 20.5 10.9995C20.5 12.9285 19.4995 14.626 17.992 15.608C17.795 15.736 17.59 15.8505 17.3795 15.9505C17.3545 15.9625 17.33 15.975 17.305 15.9865C15.857 16.645 14.143 16.645 12.695 15.9865C12.67 15.975 12.645 15.9625 12.6205 15.9505C12.4095 15.8505 12.205 15.736 12.008 15.608C10.5005 14.626 9.5 12.9285 9.5 10.9995ZM26.3645 23.161C25.231 19.814 22.645 17.109 19.341 15.824C20.6625 14.6335 21.5 12.9145 21.5 10.9995C21.5 7.41551 18.584 4.49951 15 4.49951C11.416 4.49951 8.5 7.41551 8.5 10.9995C8.5 12.9145 9.3375 14.6335 10.6595 15.824C7.3555 17.1095 4.7695 19.814 3.636 23.161C1.9795 20.8615 1 18.0435 1 14.9995C1 7.28001 7.2805 0.999512 15 0.999512C22.7195 0.999512 29 7.28001 29 14.9995C29 18.0435 28.0205 20.8615 26.3645 23.161Z" fill="#798A9B"/>
</svg>
