<svg width="30" height="30" viewBox="0 0 30 30" fill="none" xmlns="http://www.w3.org/2000/svg">
<path d="M28.4956 16.9365V27.4966C28.4956 28.8748 27.3743 29.996 25.9962 29.996H4.00124C2.62306 29.996 1.50182 28.8748 1.50182 27.4966V16.9365C1.50182 16.6605 1.72564 16.4366 2.0017 16.4366C2.27776 16.4366 2.50159 16.6605 2.50159 16.9365V27.4966C2.50159 28.3235 3.17431 28.9962 4.00124 28.9962H9.43748V20.5607C9.43748 19.1825 10.5587 18.0613 11.9369 18.0613H18.0605C19.4387 18.0613 20.5599 19.1825 20.5599 20.5607V26.9967C20.5599 27.2728 20.3361 27.4966 20.06 27.4966C19.784 27.4966 19.5601 27.2728 19.5601 26.9967V20.5607C19.5601 19.7338 18.8874 19.061 18.0605 19.061H11.9369C11.11 19.061 10.4373 19.7338 10.4373 20.5607V28.9962H14.4988V21.123C14.4988 20.847 14.7226 20.6232 14.9987 20.6232C15.2748 20.6232 15.4986 20.847 15.4986 21.123V28.9962H25.9962C26.823 28.9962 27.4958 28.3235 27.4958 27.4966V16.9365C27.4958 16.6605 27.7196 16.4366 27.9957 16.4366C28.2717 16.4366 28.4956 16.6604 28.4956 16.9365ZM3.25141 8.00108C3.25141 8.27714 3.47524 8.50097 3.7513 8.50097C30.9493 8.50097 29.6008 8.54958 29.7995 8.39718C29.9033 8.31726 29.9712 8.20197 29.9899 8.07025C30.0177 7.86936 30.1971 8.36337 26.7047 0.304048C26.6254 0.121215 26.4453 0.00292969 26.246 0.00292969H3.75124C3.55203 0.00292969 3.37176 0.121277 3.29259 0.304048L0.0433434 7.80231C-0.0140808 7.93491 0.00210293 7.72446 0.00210293 11.1024C0.00572709 13.3759 1.85574 15.2256 4.12615 15.2256C5.68698 15.2256 7.0491 14.3514 7.74925 13.0663C9.31301 15.9401 13.432 15.9432 14.9986 13.0683C16.564 15.9409 20.6812 15.9416 22.247 13.0683C22.9466 14.3522 24.3089 15.2256 25.8711 15.2256C28.1452 15.2256 29.9952 13.3756 29.9952 11.1016C29.9952 10.8255 29.7713 10.6017 29.4953 10.6017C29.2192 10.6017 28.9954 10.8255 28.9954 11.1016C28.9954 12.8243 27.5938 14.2258 25.8711 14.2258C24.1484 14.2258 22.7468 12.8243 22.7468 11.1016C22.7468 10.8255 22.523 10.6017 22.247 10.6017C21.9709 10.6017 21.7471 10.8255 21.7471 11.1016C21.7471 12.8243 20.3455 14.2258 18.6228 14.2258C16.9001 14.2258 15.4985 12.8243 15.4985 11.1016C15.4985 10.8255 15.2747 10.6017 14.9986 10.6017C14.7226 10.6017 14.4987 10.8255 14.4987 11.1016C14.4987 12.8243 13.0972 14.2258 11.3745 14.2258C9.69005 14.2258 8.2502 12.8721 8.2502 11.0766C8.2502 10.8005 8.02637 10.5767 7.75031 10.5767C7.47425 10.5767 7.25043 10.8005 7.25043 11.0766C7.25043 12.857 5.81957 14.2258 4.12615 14.2258C2.40617 14.2258 1.00456 12.8239 1.00187 11.1016V8.10468L4.07947 1.0027H25.9179L28.7339 7.5012H3.7513C3.47517 7.5012 3.25141 7.72496 3.25141 8.00108Z" fill="#798A9B"/>
</svg>
